<?xml version="1.0" encoding="utf-8"?>
<!-- Generator: Adobe Illustrator 24.0.2, SVG Export Plug-In . SVG Version: 6.00 Build 0)  -->
<svg version="1.1" id="Layer_1" xmlns="http://www.w3.org/2000/svg" xmlns:xlink="http://www.w3.org/1999/xlink" x="0px" y="0px"
	 viewBox="0 0 147.1 95.4" style="enable-background:new 0 0 147.1 95.4;" xml:space="preserve">
<style type="text/css">
	.st0{display:none;opacity:0.5;fill:#E056F2;}
	.st1{display:none;opacity:0.5;fill:#1FE1BC;}
	.st2{display:none;opacity:0.5;fill:#7776EC;}
	.st3{fill:none;stroke:#333333;stroke-width:2;stroke-miterlimit:10;}
	.st4{fill:none;stroke:#333333;stroke-miterlimit:10;}
	.st5{fill:#7776EC;}
</style>
<title>graphicDes</title>
<g id="Layer_2_1_">
	<g id="Website">
		<g id="services">
			<g id="services-img-text">
				<g id="Layer_47">
					<g id="graphicDes">
						<circle class="st0" cx="68.7" cy="74.5" r="17.1"/>
						<circle class="st1" cx="114.9" cy="28.1" r="29.1"/>
						<circle class="st2" cx="53.4" cy="79.3" r="12.8"/>
						<circle class="st2" cx="28.7" cy="31.9" r="20.7"/>
						<circle class="st2" cx="103.8" cy="50.6" r="29.3"/>
						<polygon class="st3" points="64.4,28 72,28.1 79.8,28 96.7,60.8 84.5,82.2 59.9,82.3 47.5,61.1 						"/>
						<line class="st3" x1="72.4" y1="52.7" x2="72.3" y2="28.1"/>
						<polyline class="st3" points="84.1,81.9 84.1,94.4 60.3,94.4 60.3,81.9 						"/>
						<line class="st4" x1="18.2" y1="5.6" x2="124.7" y2="5.6"/>
						<circle class="st5" cx="16.1" cy="4.9" r="4.9"/>
						<circle class="st5" cx="128.2" cy="4.9" r="4.9"/>
						<path class="st3" d="M72.8,5.6c0,0-65.8,11.2-67.2,82.7"/>
						<path class="st3" d="M74.2,5.6c0,0,65.8,11.2,67.2,82.7"/>
						<rect x="67.2" class="st5" width="11.2" height="11.2"/>
						<rect x="135.9" y="79.8" class="st5" width="11.2" height="11.2"/>
						<rect y="79.8" class="st5" width="11.2" height="11.2"/>
					</g>
				</g>
			</g>
		</g>
	</g>
</g>
</svg>
