<svg xmlns="http://www.w3.org/2000/svg" viewBox="0 0 47.05 47.06"><title>linkedIn</title><g id="Layer_2" data-name="Layer 2"><g id="Website"><g id="footer"><path d="M47.05,2.85V44.21a3.59,3.59,0,0,1-1.46,2.23,10.87,10.87,0,0,1-1.39.62H2.85L2.78,47A3.41,3.41,0,0,1,0,43.33V3.72a5.7,5.7,0,0,1,0-.83A3.4,3.4,0,0,1,3.58,0H41.66c.69,0,1.38,0,2.07,0a3.37,3.37,0,0,1,3.16,2.37C46.94,2.54,47,2.7,47.05,2.85ZM25.59,18.37H19.88V35.55h5.71V35c0-2.29,0-4.59,0-6.89,0-.9,0-1.8,0-2.71A3,3,0,0,1,27,23a2.76,2.76,0,0,1,4.38,1.46,7.34,7.34,0,0,1,.25,2c0,2.86,0,5.73,0,8.59v.51h5.7c0-.15,0-.29,0-.42,0-3.14,0-6.28,0-9.42a16.79,16.79,0,0,0-.13-1.87c-.4-3.36-2.41-5.48-5.64-5.86a5.72,5.72,0,0,0-5.73,2.43l-.25.3Zm-8.92,17.2c0-.13,0-.22,0-.31q0-8.28,0-16.54c0-.35-.14-.4-.44-.4H11.4c-.14,0-.27,0-.42,0V35.55l.31,0ZM13.88,10a3.13,3.13,0,0,0-3,1.65,2.94,2.94,0,0,0,1.51,4.05A3.34,3.34,0,0,0,16.91,14,3,3,0,0,0,13.88,10Z" style="fill:#666"/><path d="M25.59,18.37v2.34l.25-.3A5.72,5.72,0,0,1,31.57,18c3.23.38,5.24,2.5,5.64,5.86a16.79,16.79,0,0,1,.13,1.87c0,3.14,0,6.28,0,9.42,0,.13,0,.27,0,.42h-5.7V35c0-2.86,0-5.73,0-8.59a7.34,7.34,0,0,0-.25-2A2.76,2.76,0,0,0,27,23a3,3,0,0,0-1.35,2.39c0,.91,0,1.81,0,2.71,0,2.3,0,4.6,0,6.89v.56H19.88V18.37Z" style="fill:#fff"/><path d="M16.67,35.57H11.29l-.31,0V18.36c.15,0,.28,0,.42,0h4.86c.3,0,.44.05.44.4q0,8.27,0,16.54C16.69,35.35,16.68,35.44,16.67,35.57Z" style="fill:#fff"/><path d="M13.88,10a3,3,0,0,1,3,4,3.34,3.34,0,0,1-4.47,1.75,2.94,2.94,0,0,1-1.51-4.05A3.13,3.13,0,0,1,13.88,10Z" style="fill:#fff"/></g></g></g></svg>