<svg xmlns="http://www.w3.org/2000/svg" xmlns:xlink="http://www.w3.org/1999/xlink" viewBox="0 0 167.63 119.13"><defs><linearGradient id="linear-gradient" y1="59.56" x2="167.63" y2="59.56" gradientUnits="userSpaceOnUse"><stop offset="0" stop-color="#b067a9"/><stop offset="0.36" stop-color="#7072b5"/><stop offset="0.66" stop-color="#60a7ce"/><stop offset="1" stop-color="#5bc1ac"/></linearGradient></defs><title>v2</title><g id="Layer_2" data-name="Layer 2"><g id="v2"><path d="M87.8,44.52,77,71.28q-8.1,19.85-12.5,27.35a45.36,45.36,0,0,1-11.13,12.8,35.73,35.73,0,0,1-22.72,7.7q-13.63,0-22.12-8.62T0,88.12Q0,69.71,13.45,55.94A53.9,53.9,0,0,1,31.59,44,56,56,0,0,1,53.2,39.43a13.64,13.64,0,0,1,8.29,2.31,7.24,7.24,0,0,1,3.13,6.11,7.49,7.49,0,0,1-3.39,6.39q-2,1.44-7.51,2-12.91,1.19-20.95,5.94A30,30,0,0,0,22.26,72.55,26,26,0,0,0,18.41,86.1q0,7.25,3.75,11.52a12.74,12.74,0,0,0,10.09,4.28q7.95,0,13.77-6.73T58.81,71.28L81.46,15.6H74.35q-9,0-9-6.27a8.2,8.2,0,0,1,3.17-6.88Q71.68,0,77.42,0h24.87q12.52,0,18.5,4.73t6,14.59A24.33,24.33,0,0,1,117.5,39q-6.73,5.55-20.76,5.55Zm6.33-15.6h5.29q10.44,0,10.44-8.49,0-4.83-5.94-4.83H99.54Z"/><path d="M132.25,53.46,130,58.94q-3,7.32-7.83,7.31a7,7,0,0,1-4.9-1.76,5.65,5.65,0,0,1-2-4.37A16.34,16.34,0,0,1,116.78,55l7.37-18.21q2.68-6.6,7.58-6.6c3.22,0,5.2,1.53,5.94,4.57l.52,2a2.8,2.8,0,0,0,1.17,2,10.9,10.9,0,0,0,3.85.4h15.28q8.55,0,8.55,6,0,8.3-10.83,8.29l-.72.65Q145.11,64,145.11,69.45c0,3.62,2,5.42,6,5.42h8.23q8.28,0,8.29,5.75a7.42,7.42,0,0,1-2.91,6.26q-2.9,2.22-8.12,2.22H143.8a13.85,13.85,0,0,1-10.67-4.5Q129,80.09,129,72.91A19.13,19.13,0,0,1,131.2,64,54.24,54.24,0,0,1,139,53.46Z"/><path d="M87.8,44.52,77,71.28q-8.1,19.85-12.5,27.35a45.36,45.36,0,0,1-11.13,12.8,35.73,35.73,0,0,1-22.72,7.7q-13.63,0-22.12-8.62T0,88.12Q0,69.71,13.45,55.94A53.9,53.9,0,0,1,31.59,44,56,56,0,0,1,53.2,39.43a13.64,13.64,0,0,1,8.29,2.31,7.24,7.24,0,0,1,3.13,6.11,7.49,7.49,0,0,1-3.39,6.39q-2,1.44-7.51,2-12.91,1.19-20.95,5.94A30,30,0,0,0,22.26,72.55,26,26,0,0,0,18.41,86.1q0,7.25,3.75,11.52a12.74,12.74,0,0,0,10.09,4.28q7.95,0,13.77-6.73T58.81,71.28L81.46,15.6H74.35q-9,0-9-6.27a8.2,8.2,0,0,1,3.17-6.88Q71.68,0,77.42,0h24.87q12.52,0,18.5,4.73t6,14.59A24.33,24.33,0,0,1,117.5,39q-6.73,5.55-20.76,5.55Zm6.33-15.6h5.29q10.44,0,10.44-8.49,0-4.83-5.94-4.83H99.54Z" style="fill:url(#linear-gradient)"/><path d="M132.25,53.46,130,58.94q-3,7.32-7.83,7.31a7,7,0,0,1-4.9-1.76,5.65,5.65,0,0,1-2-4.37A16.34,16.34,0,0,1,116.78,55l7.37-18.21q2.68-6.6,7.58-6.6c3.22,0,5.2,1.53,5.94,4.57l.52,2a2.8,2.8,0,0,0,1.17,2,10.9,10.9,0,0,0,3.85.4h15.28q8.55,0,8.55,6,0,8.3-10.83,8.29l-.72.65Q145.11,64,145.11,69.45c0,3.62,2,5.42,6,5.42h8.23q8.28,0,8.29,5.75a7.42,7.42,0,0,1-2.91,6.26q-2.9,2.22-8.12,2.22H143.8a13.85,13.85,0,0,1-10.67-4.5Q129,80.09,129,72.91A19.13,19.13,0,0,1,131.2,64,54.24,54.24,0,0,1,139,53.46Z" style="fill:url(#linear-gradient)"/></g></g></svg>