<svg xmlns="http://www.w3.org/2000/svg" viewBox="0 0 104.95 63.22"><title>ux-ui</title><g id="Layer_2" data-name="Layer 2"><g id="Tablet"><g id="services"><g id="Layer_55" data-name="Layer 55"><g id="ux_ui" data-name="ux/ui"><rect x="77.76" y="43.03" width="26.18" height="19.04" rx="5.44" style="fill:none;stroke:#7776ec;stroke-miterlimit:10;stroke-width:2px"/><line x1="84.72" y1="50.59" x2="97.41" y2="50.59" style="fill:none;stroke:#7776ec;stroke-miterlimit:10;stroke-width:2px"/><line x1="84.51" y1="54.14" x2="97.2" y2="54.14" style="fill:none;stroke:#7776ec;stroke-miterlimit:10;stroke-width:2px"/><rect x="39.12" y="1" width="26.18" height="19.04" rx="5.44" style="fill:none;stroke:#7776ec;stroke-miterlimit:10;stroke-width:2px"/><line x1="46.1" y1="8.69" x2="58.79" y2="8.69" style="fill:none;stroke:#7776ec;stroke-miterlimit:10;stroke-width:2px"/><line x1="45.87" y1="12.53" x2="58.56" y2="12.53" style="fill:none;stroke:#7776ec;stroke-miterlimit:10;stroke-width:2px"/><rect x="1" y="43.18" width="26.18" height="19.04" rx="5.44" style="fill:none;stroke:#7776ec;stroke-miterlimit:10;stroke-width:2px"/><line x1="7.35" y1="50.74" x2="20.04" y2="50.74" style="fill:none;stroke:#7776ec;stroke-miterlimit:10;stroke-width:2px"/><line x1="7.14" y1="54.29" x2="19.83" y2="54.29" style="fill:none;stroke:#7776ec;stroke-miterlimit:10;stroke-width:2px"/><rect x="39.08" y="43.18" width="26.18" height="19.04" rx="5.44" style="fill:none;stroke:#7776ec;stroke-miterlimit:10;stroke-width:2px"/><line x1="46.04" y1="50.74" x2="58.73" y2="50.74" style="fill:none;stroke:#7776ec;stroke-miterlimit:10;stroke-width:2px"/><line x1="45.83" y1="54.29" x2="58.52" y2="54.29" style="fill:none;stroke:#7776ec;stroke-miterlimit:10;stroke-width:2px"/><polyline points="91.28 41.11 91.28 31.19 13.53 31.19 13.53 41.51" style="fill:none;stroke:#7776ec;stroke-miterlimit:10;stroke-width:2px"/><line x1="52.15" y1="23.53" x2="52.15" y2="40.53" style="fill:none;stroke:#7776ec;stroke-miterlimit:10;stroke-width:2px"/></g></g></g></g></g></svg>