<?xml version="1.0" encoding="utf-8"?>
<!-- Generator: Adobe Illustrator 24.0.2, SVG Export Plug-In . SVG Version: 6.00 Build 0)  -->
<svg version="1.1" id="Layer_1" xmlns="http://www.w3.org/2000/svg" xmlns:xlink="http://www.w3.org/1999/xlink" x="0px" y="0px"
	 viewBox="0 0 137.5 110.1" style="enable-background:new 0 0 137.5 110.1;" xml:space="preserve">
<style type="text/css">
	.st0{fill:none;}
	.st1{display:none;opacity:0.3;fill:#60A8CF;}
	.st2{display:none;opacity:0.5;fill:#7776EC;}
	.st3{display:none;opacity:0.3;fill:#1FE1BC;}
	.st4{fill:none;stroke:#333333;stroke-width:2;stroke-miterlimit:10;}
	.st5{fill:none;stroke:#7776EC;stroke-width:2;stroke-miterlimit:10;}
	.st6{fill:#333333;}
	.st7{display:none;fill:none;stroke:#7776EC;stroke-width:0.75;stroke-miterlimit:10;}
</style>
<g>
	<g>
		<path class="st0" d="M0,0"/>
		<circle class="st1" cx="100" cy="34.1" r="26.9"/>
		<circle class="st2" cx="120.1" cy="46.4" r="4.5"/>
		<circle class="st2" cx="53.9" cy="39.1" r="24.8"/>
		<circle class="st2" cx="24.3" cy="95.1" r="4.5"/>
		<circle class="st3" cx="110.1" cy="81.9" r="18.3"/>
		<path class="st4" d="M4,51.6h25.5c1.6,0,3,1.3,3,3v51.5c0,1.6-1.3,3-3,3H4c-1.6,0-3-1.3-3-3V54.6C1,53,2.3,51.6,4,51.6z"/>
		<path class="st4" d="M33.2,87.2h49.3 M51.7,87.2l-6.9,9.6h30.1l-6.1-9.6"/>
		<path class="st4" d="M84.9,25.6h48.5c1.7,0,3.1,1.4,3.1,3.1v70.4c0,1.7-1.4,3.1-3.1,3.1H84.9c-1.7,0-3.1-1.4-3.1-3.1V28.8
			C81.8,27,83.1,25.6,84.9,25.6z"/>
		<path class="st5" d="M129.7,36.9v51.3c0,1.7-1.4,3.1-3.1,3.1H93c-1.7,0-3.1-1.4-3.1-3.1V36.9c0-1.7,1.4-3.1,3.1-3.1h33.6
			C128.3,33.9,129.7,35.2,129.7,36.9z"/>
		<circle class="st6" cx="109.8" cy="97.1" r="2.1"/>
		<path class="st4" d="M9.2,51.6l2.7,5.5h9.6l2.7-5.5"/>
		<circle class="st6" cx="16.1" cy="103.7" r="2.1"/>
	</g>
</g>
<path class="st4" d="M6.1,51.6V10.7c0-2,1.7-3.6,3.8-3.6h99.8c2,0,3.7,1.6,3.7,3.5v15"/>
<polyline class="st5" points="14,50 14,15.6 99,15.6 "/>
<path class="st7" d="M29.1,59.2v37.7c0,1.2-0.9,2.3-2,2.3H5.5c-1.1,0-2-1-2-2.3V59.2c0-1.2,0.9-2.3,2-2.3h21.6
	C28.2,56.9,29.1,57.9,29.1,59.2z"/>
</svg>
